<mxfile host="65bd71144e">
    <diagram id="RoUjXTbav0EPsPRZ2OOd" name="Page-1">
        <mxGraphModel dx="1276" dy="1104" grid="1" gridSize="10" guides="1" tooltips="1" connect="1" arrows="1" fold="1" page="1" pageScale="1" pageWidth="850" pageHeight="1100" math="0" shadow="0">
            <root>
                <mxCell id="0"/>
                <mxCell id="1" parent="0"/>
                <mxCell id="2" value="" style="rounded=1;whiteSpace=wrap;html=1;" vertex="1" parent="1">
                    <mxGeometry x="160" y="60" width="530" height="60" as="geometry"/>
                </mxCell>
                <mxCell id="3" value="&lt;font style=&quot;font-size: 23px;&quot;&gt;عروض الباقات&lt;/font&gt;" style="text;html=1;strokeColor=none;fillColor=none;align=center;verticalAlign=middle;whiteSpace=wrap;rounded=0;" vertex="1" parent="1">
                    <mxGeometry x="357" y="75" width="137" height="30" as="geometry"/>
                </mxCell>
                <mxCell id="5" value="" style="rounded=1;whiteSpace=wrap;html=1;fontSize=23;" vertex="1" parent="1">
                    <mxGeometry x="50" y="200" width="220" height="190" as="geometry"/>
                </mxCell>
                <mxCell id="6" value="&lt;font style=&quot;font-size: 29px;&quot;&gt;الباقة الذهبية&lt;/font&gt;" style="text;html=1;strokeColor=#d79b00;fillColor=#ffcd28;align=center;verticalAlign=middle;whiteSpace=wrap;rounded=0;fontSize=23;gradientColor=#ffa500;fontColor=#000000;" vertex="1" parent="1">
                    <mxGeometry x="50" y="230" width="220" height="30" as="geometry"/>
                </mxCell>
                <mxCell id="7" value="&lt;font style=&quot;font-size: 14px;&quot;&gt;4 كاميرات مراقبة هيكفيجن 5 ميقا بكسل&lt;/font&gt;" style="text;html=1;strokeColor=none;fillColor=none;align=center;verticalAlign=middle;whiteSpace=wrap;rounded=0;fontSize=29;" vertex="1" parent="1">
                    <mxGeometry x="65" y="275" width="190" height="40" as="geometry"/>
                </mxCell>
                <mxCell id="8" value="" style="rounded=1;whiteSpace=wrap;html=1;fontSize=14;" vertex="1" parent="1">
                    <mxGeometry x="100" y="330" width="120" height="35" as="geometry"/>
                </mxCell>
                <mxCell id="9" value="شاهد التفاصيل" style="text;html=1;strokeColor=none;fillColor=none;align=center;verticalAlign=middle;whiteSpace=wrap;rounded=0;fontSize=14;" vertex="1" parent="1">
                    <mxGeometry x="120" y="332.5" width="80" height="30" as="geometry"/>
                </mxCell>
                <mxCell id="10" value="" style="rounded=1;whiteSpace=wrap;html=1;fontSize=23;" vertex="1" parent="1">
                    <mxGeometry x="310" y="200" width="220" height="190" as="geometry"/>
                </mxCell>
                <mxCell id="11" value="&lt;font style=&quot;font-size: 29px;&quot;&gt;الباقة الفضية&lt;/font&gt;" style="text;html=1;strokeColor=#56517e;fillColor=#d0cee2;align=center;verticalAlign=middle;whiteSpace=wrap;rounded=0;fontSize=23;fontColor=#000000;" vertex="1" parent="1">
                    <mxGeometry x="310" y="230" width="220" height="30" as="geometry"/>
                </mxCell>
                <mxCell id="12" value="&lt;font style=&quot;font-size: 14px;&quot;&gt;4 كاميرات مراقبة هيكفيجن 5 ميقا بكسل&lt;/font&gt;" style="text;html=1;strokeColor=none;fillColor=none;align=center;verticalAlign=middle;whiteSpace=wrap;rounded=0;fontSize=29;" vertex="1" parent="1">
                    <mxGeometry x="325" y="275" width="190" height="40" as="geometry"/>
                </mxCell>
                <mxCell id="13" value="" style="rounded=1;whiteSpace=wrap;html=1;fontSize=14;" vertex="1" parent="1">
                    <mxGeometry x="360" y="330" width="120" height="35" as="geometry"/>
                </mxCell>
                <mxCell id="14" value="شاهد التفاصيل" style="text;html=1;strokeColor=none;fillColor=none;align=center;verticalAlign=middle;whiteSpace=wrap;rounded=0;fontSize=14;" vertex="1" parent="1">
                    <mxGeometry x="380" y="332.5" width="80" height="30" as="geometry"/>
                </mxCell>
                <mxCell id="15" value="" style="rounded=1;whiteSpace=wrap;html=1;fontSize=23;" vertex="1" parent="1">
                    <mxGeometry x="580" y="200" width="220" height="190" as="geometry"/>
                </mxCell>
                <mxCell id="16" value="&lt;font style=&quot;font-size: 29px;&quot;&gt;الباقة البرونزية&lt;/font&gt;" style="text;html=1;strokeColor=#56517e;fillColor=#d0cee2;align=center;verticalAlign=middle;whiteSpace=wrap;rounded=0;fontSize=23;fontColor=#000000;" vertex="1" parent="1">
                    <mxGeometry x="580" y="230" width="220" height="30" as="geometry"/>
                </mxCell>
                <mxCell id="17" value="&lt;font style=&quot;font-size: 14px;&quot;&gt;4 كاميرات مراقبة هيكفيجن 5 ميقا بكسل&lt;/font&gt;" style="text;html=1;strokeColor=none;fillColor=none;align=center;verticalAlign=middle;whiteSpace=wrap;rounded=0;fontSize=29;" vertex="1" parent="1">
                    <mxGeometry x="595" y="275" width="190" height="40" as="geometry"/>
                </mxCell>
                <mxCell id="18" value="" style="rounded=1;whiteSpace=wrap;html=1;fontSize=14;" vertex="1" parent="1">
                    <mxGeometry x="630" y="330" width="120" height="35" as="geometry"/>
                </mxCell>
                <mxCell id="19" value="شاهد التفاصيل" style="text;html=1;strokeColor=none;fillColor=none;align=center;verticalAlign=middle;whiteSpace=wrap;rounded=0;fontSize=14;" vertex="1" parent="1">
                    <mxGeometry x="650" y="332.5" width="80" height="30" as="geometry"/>
                </mxCell>
                <mxCell id="21" value="" style="endArrow=classic;startArrow=none;html=1;fontSize=14;fontColor=#000000;entryX=0.5;entryY=1;entryDx=0;entryDy=0;" edge="1" parent="1" source="23" target="14">
                    <mxGeometry width="50" height="50" relative="1" as="geometry">
                        <mxPoint x="420" y="500" as="sourcePoint"/>
                        <mxPoint x="440" y="460" as="targetPoint"/>
                    </mxGeometry>
                </mxCell>
                <mxCell id="22" value="" style="rounded=1;whiteSpace=wrap;html=1;fontSize=14;fontColor=#000000;" vertex="1" parent="1">
                    <mxGeometry x="105" y="510" width="640" height="360" as="geometry"/>
                </mxCell>
                <mxCell id="24" value="" style="endArrow=none;startArrow=classic;html=1;fontSize=14;fontColor=#000000;entryX=0.5;entryY=1;entryDx=0;entryDy=0;" edge="1" parent="1" target="23">
                    <mxGeometry width="50" height="50" relative="1" as="geometry">
                        <mxPoint x="420" y="500" as="sourcePoint"/>
                        <mxPoint x="420" y="362.5" as="targetPoint"/>
                    </mxGeometry>
                </mxCell>
                <mxCell id="23" value="&lt;font color=&quot;#ffffff&quot; style=&quot;font-size: 26px;&quot;&gt;موديل&lt;/font&gt;" style="text;html=1;strokeColor=none;fillColor=none;align=center;verticalAlign=middle;whiteSpace=wrap;rounded=0;fontSize=26;fontColor=#000000;" vertex="1" parent="1">
                    <mxGeometry x="390" y="420" width="60" height="30" as="geometry"/>
                </mxCell>
                <mxCell id="25" value="عرض الباقة الفضية" style="text;html=1;strokeColor=none;fillColor=none;align=center;verticalAlign=middle;whiteSpace=wrap;rounded=0;fontSize=26;fontColor=#FFFFFF;" vertex="1" parent="1">
                    <mxGeometry x="328.5" y="540" width="183" height="30" as="geometry"/>
                </mxCell>
                <mxCell id="26" value="-: الباقة تحتوي علي" style="text;html=1;strokeColor=none;fillColor=none;align=center;verticalAlign=middle;whiteSpace=wrap;rounded=0;fontSize=26;fontColor=#FFFFFF;" vertex="1" parent="1">
                    <mxGeometry x="540" y="580" width="180" height="30" as="geometry"/>
                </mxCell>
                <mxCell id="28" value="&lt;span style=&quot;font-family: Arial; font-size: 20px; text-align: -webkit-right;&quot;&gt;كاميرات مراقبة هيكفيجن&amp;nbsp;&lt;/span&gt;&lt;span style=&quot;background-color: transparent; font-size: medium;&quot;&gt;5&amp;nbsp;&lt;/span&gt;&lt;font style=&quot;font-size: 21px;&quot;&gt;&lt;span style=&quot;background-color: transparent;&quot;&gt;&amp;nbsp;&lt;/span&gt;&lt;font style=&quot;background-color: transparent; font-size: 21px;&quot; face=&quot;Arial&quot;&gt;&lt;span style=&quot;&quot; lang=&quot;hi-IN&quot;&gt;ميجا 4 بكسل للعرض والتسجيل&lt;/span&gt;&lt;/font&gt;&lt;/font&gt;" style="text;html=1;strokeColor=none;fillColor=none;align=center;verticalAlign=middle;whiteSpace=wrap;rounded=0;fontSize=20;fontColor=#FFFFFF;" vertex="1" parent="1">
                    <mxGeometry x="130" y="580" width="417" height="30" as="geometry"/>
                </mxCell>
                <mxCell id="29" value="&amp;nbsp;-: مزودة بعدد" style="text;html=1;strokeColor=none;fillColor=none;align=center;verticalAlign=middle;whiteSpace=wrap;rounded=0;fontSize=20;fontColor=#FFFFFF;" vertex="1" parent="1">
                    <mxGeometry x="600" y="630" width="110" height="30" as="geometry"/>
                </mxCell>
                <mxCell id="30" value="&amp;nbsp;مداخل جهاز&amp;nbsp;" style="text;html=1;strokeColor=none;fillColor=none;align=center;verticalAlign=middle;whiteSpace=wrap;rounded=0;fontSize=20;fontColor=#FFFFFF;" vertex="1" parent="1">
                    <mxGeometry x="480" y="630" width="107" height="30" as="geometry"/>
                </mxCell>
                <mxCell id="31" value="4" style="text;html=1;strokeColor=none;fillColor=none;align=center;verticalAlign=middle;whiteSpace=wrap;rounded=0;fontSize=20;fontColor=#FFFFFF;" vertex="1" parent="1">
                    <mxGeometry x="570" y="630" width="47" height="30" as="geometry"/>
                </mxCell>
                <mxCell id="34" value="-: بمساحة" style="text;html=1;strokeColor=none;fillColor=none;align=center;verticalAlign=middle;whiteSpace=wrap;rounded=0;fontSize=20;fontColor=#FFFFFF;" vertex="1" parent="1">
                    <mxGeometry x="270" y="630" width="110" height="30" as="geometry"/>
                </mxCell>
                <mxCell id="35" value="تيرا بايت" style="text;html=1;strokeColor=none;fillColor=none;align=center;verticalAlign=middle;whiteSpace=wrap;rounded=0;fontSize=20;fontColor=#FFFFFF;" vertex="1" parent="1">
                    <mxGeometry x="170" y="630" width="87" height="30" as="geometry"/>
                </mxCell>
                <mxCell id="36" value="2" style="text;html=1;strokeColor=none;fillColor=none;align=center;verticalAlign=middle;whiteSpace=wrap;rounded=0;fontSize=20;fontColor=#FFFFFF;" vertex="1" parent="1">
                    <mxGeometry x="250" y="630" width="47" height="30" as="geometry"/>
                </mxCell>
                <mxCell id="37" value="DVR" style="text;html=1;strokeColor=none;fillColor=none;align=center;verticalAlign=middle;whiteSpace=wrap;rounded=0;fontSize=20;fontColor=#FFFFFF;" vertex="1" parent="1">
                    <mxGeometry x="440" y="630" width="47" height="30" as="geometry"/>
                </mxCell>
                <mxCell id="39" value="&amp;nbsp;-: مزودة بعدد" style="text;html=1;strokeColor=none;fillColor=none;align=center;verticalAlign=middle;whiteSpace=wrap;rounded=0;fontSize=20;fontColor=#FFFFFF;" vertex="1" parent="1">
                    <mxGeometry x="600" y="670" width="110" height="30" as="geometry"/>
                </mxCell>
                <mxCell id="40" value="بوكسات حماية" style="text;html=1;strokeColor=none;fillColor=none;align=center;verticalAlign=middle;whiteSpace=wrap;rounded=0;fontSize=20;fontColor=#FFFFFF;" vertex="1" parent="1">
                    <mxGeometry x="480" y="670" width="107" height="30" as="geometry"/>
                </mxCell>
                <mxCell id="41" value="4" style="text;html=1;strokeColor=none;fillColor=none;align=center;verticalAlign=middle;whiteSpace=wrap;rounded=0;fontSize=20;fontColor=#FFFFFF;" vertex="1" parent="1">
                    <mxGeometry x="570" y="670" width="47" height="30" as="geometry"/>
                </mxCell>
                <mxCell id="44" value="&amp;nbsp;-: مزودة بعدد" style="text;html=1;strokeColor=none;fillColor=none;align=center;verticalAlign=middle;whiteSpace=wrap;rounded=0;fontSize=20;fontColor=#FFFFFF;" vertex="1" parent="1">
                    <mxGeometry x="260" y="670" width="110" height="30" as="geometry"/>
                </mxCell>
                <mxCell id="45" value="كونكتور" style="text;html=1;strokeColor=none;fillColor=none;align=center;verticalAlign=middle;whiteSpace=wrap;rounded=0;fontSize=20;fontColor=#FFFFFF;" vertex="1" parent="1">
                    <mxGeometry x="153" y="670" width="107" height="30" as="geometry"/>
                </mxCell>
                <mxCell id="46" value="8" style="text;html=1;strokeColor=none;fillColor=none;align=center;verticalAlign=middle;whiteSpace=wrap;rounded=0;fontSize=20;fontColor=#FFFFFF;" vertex="1" parent="1">
                    <mxGeometry x="230" y="670" width="47" height="30" as="geometry"/>
                </mxCell>
                <mxCell id="47" value="&amp;nbsp;-: مزودة بعدد" style="text;html=1;strokeColor=none;fillColor=none;align=center;verticalAlign=middle;whiteSpace=wrap;rounded=0;fontSize=20;fontColor=#FFFFFF;" vertex="1" parent="1">
                    <mxGeometry x="600" y="710" width="110" height="30" as="geometry"/>
                </mxCell>
                <mxCell id="48" value="BNC" style="text;html=1;strokeColor=none;fillColor=none;align=center;verticalAlign=middle;whiteSpace=wrap;rounded=0;fontSize=20;fontColor=#FFFFFF;" vertex="1" parent="1">
                    <mxGeometry x="500" y="710" width="107" height="30" as="geometry"/>
                </mxCell>
                <mxCell id="49" value="8" style="text;html=1;strokeColor=none;fillColor=none;align=center;verticalAlign=middle;whiteSpace=wrap;rounded=0;fontSize=20;fontColor=#FFFFFF;" vertex="1" parent="1">
                    <mxGeometry x="570" y="710" width="47" height="30" as="geometry"/>
                </mxCell>
                <mxCell id="52" value="&amp;nbsp;-: تأتي مع" style="text;html=1;strokeColor=none;fillColor=none;align=center;verticalAlign=middle;whiteSpace=wrap;rounded=0;fontSize=20;fontColor=#FFFFFF;" vertex="1" parent="1">
                    <mxGeometry x="608" y="750" width="110" height="30" as="geometry"/>
                </mxCell>
                <mxCell id="53" value="محول كهربائي" style="text;html=1;strokeColor=none;fillColor=none;align=center;verticalAlign=middle;whiteSpace=wrap;rounded=0;fontSize=20;fontColor=#FFFFFF;" vertex="1" parent="1">
                    <mxGeometry x="494" y="750" width="107" height="30" as="geometry"/>
                </mxCell>
                <mxCell id="54" value="1" style="text;html=1;strokeColor=none;fillColor=none;align=center;verticalAlign=middle;whiteSpace=wrap;rounded=0;fontSize=20;fontColor=#FFFFFF;" vertex="1" parent="1">
                    <mxGeometry x="591" y="750" width="47" height="30" as="geometry"/>
                </mxCell>
                <mxCell id="56" value="" style="rounded=1;whiteSpace=wrap;html=1;fontSize=21;fontColor=#FFFFFF;" vertex="1" parent="1">
                    <mxGeometry x="338" y="800" width="177" height="40" as="geometry"/>
                </mxCell>
                <mxCell id="57" value="!اطلب الآن" style="text;html=1;strokeColor=none;fillColor=none;align=center;verticalAlign=middle;whiteSpace=wrap;rounded=0;fontSize=21;fontColor=#FFFFFF;" vertex="1" parent="1">
                    <mxGeometry x="385" y="805" width="80" height="30" as="geometry"/>
                </mxCell>
                <mxCell id="58" value="" style="endArrow=classic;startArrow=classic;html=1;fontSize=21;fontColor=#FFFFFF;" edge="1" parent="1" target="56">
                    <mxGeometry width="50" height="50" relative="1" as="geometry">
                        <mxPoint x="426" y="920" as="sourcePoint"/>
                        <mxPoint x="231.5" y="890" as="targetPoint"/>
                    </mxGeometry>
                </mxCell>
                <mxCell id="59" value="بمجرد الضغط علي هذا الزر سيتم تحويل المستخدم الي صفحة الفورم" style="text;html=1;strokeColor=none;fillColor=none;align=center;verticalAlign=middle;whiteSpace=wrap;rounded=0;fontSize=21;fontColor=#FFFFFF;" vertex="1" parent="1">
                    <mxGeometry x="155" y="920" width="540" height="30" as="geometry"/>
                </mxCell>
            </root>
        </mxGraphModel>
    </diagram>
</mxfile>